<svg width="200" height="200" xmlns="http://www.w3.org/2000/svg">

 <g>
  <title>Layer 1</title>
  <path stroke-dasharray="5,2,2,2" stroke="#000" id="svg_15" d="m139.35055,150.12933l-36.6233,21.5584" opacity="undefined" stroke-linecap="undefined" stroke-linejoin="undefined" fill="none"/>
  <line stroke-dasharray="5,2,2,2,2,2" stroke="#000" stroke-linecap="undefined" stroke-linejoin="undefined" id="svg_26" y2="144.15533" x2="100.90908" y1="149.86959" x1="138.57134" fill="none"/>
  <line stroke-linecap="undefined" stroke-linejoin="undefined" id="svg_53" y2="45.45423" x2="175.45438" y1="63.89575" x1="140.38952" stroke="#000" fill="none"/>
  <line stroke-linecap="undefined" stroke-linejoin="undefined" id="svg_57" y2="59.73992" x2="186.88292" y1="45.71397" x1="174.9349" stroke="#000" fill="none"/>
  <line stroke-linecap="undefined" stroke-linejoin="undefined" id="svg_58" y2="60.51914" x2="187.66214" y1="75.84378" x1="185.06475" stroke="#000" fill="none"/>
  <line stroke-linecap="undefined" stroke-linejoin="undefined" id="svg_59" y2="75.3243" x2="185.06475" y1="91.94764" x1="147.66223" stroke="#000" fill="none"/>
  <line stroke-linecap="undefined" stroke-linejoin="undefined" id="svg_60" y2="55.84382" x2="120.12982" y1="63.89575" x1="140.38952" stroke="#000" fill="none"/>
  <line stroke-linecap="undefined" stroke-linejoin="undefined" id="svg_61" y2="54.54512" x2="120.12982" y1="61.03862" x1="94.41559" stroke="#000" fill="none"/>
  <line stroke-linecap="undefined" stroke-linejoin="undefined" id="svg_62" y2="62.07758" x2="95.19481" y1="40.51918" x1="80.64938" stroke="#000" fill="none"/>
  <line stroke-linecap="undefined" stroke-linejoin="undefined" id="svg_63" y2="39.9997" x2="80.64938" y1="33.50621" x1="44.80531" stroke="#000" fill="none"/>
  <line stroke-linecap="undefined" stroke-linejoin="undefined" id="svg_64" y2="33.76595" x2="45.32478" y1="67.79185" x1="18.57159" stroke="#000" fill="none"/>
  <line stroke-linecap="undefined" stroke-linejoin="undefined" id="svg_65" y2="67.53211" x2="18.83133" y1="86.23337" x1="17.01316" stroke="#000" fill="none"/>
  <line stroke-linecap="undefined" stroke-linejoin="undefined" id="svg_66" y2="84.93467" x2="17.53264" y1="101.03853" x1="38.05207" stroke="#000" fill="none"/>
  <line stroke-linecap="undefined" stroke-linejoin="undefined" id="svg_67" y2="101.81775" x2="38.05207" y1="95.06452" x1="71.29875" stroke="#000" fill="none"/>
  <line stroke-linecap="undefined" stroke-linejoin="undefined" id="svg_68" y2="96.10348" x2="66.10396" y1="117.66187" x1="48.44166" stroke="#000" fill="none"/>
  <line stroke-linecap="undefined" stroke-linejoin="undefined" id="svg_69" y2="118.70083" x2="47.92218" y1="146.75272" x1="54.93515" stroke="#000" fill="none"/>
  <line stroke-linecap="undefined" stroke-linejoin="undefined" id="svg_70" y2="146.75272" x2="55.71437" y1="171.68773" x1="79.61043" stroke="#000" fill="none"/>
  <line stroke-linecap="undefined" stroke-linejoin="undefined" id="svg_71" y2="172.20721" x2="79.61043" y1="181.81758" x1="115.4545" stroke="#000" fill="none"/>
  <line stroke-linecap="undefined" stroke-linejoin="undefined" id="svg_72" y2="181.55784" x2="116.49346" y1="167.01242" x1="150.51936" stroke="#000" fill="none"/>
  <line stroke-linecap="undefined" stroke-linejoin="undefined" id="svg_73" y2="165.97346" x2="151.81806" y1="138.70079" x1="166.10375" stroke="#000" fill="none"/>
  <line stroke-linecap="undefined" stroke-linejoin="undefined" id="svg_74" y2="138.70079" x2="166.88297" y1="120.51901" x1="163.24661" stroke="#000" fill="none"/>
  <line stroke-linecap="undefined" stroke-linejoin="undefined" id="svg_75" y2="120.77875" x2="162.72713" y1="89.35024" x1="154.6752" stroke="#000" fill="none"/>
  <ellipse ry="10.7792" rx="13.7662" id="svg_77" cy="107.14241" cx="94.93507" stroke="#000" fill="none"/>
  <ellipse ry="11.68829" rx="11.68829" id="svg_78" cy="109.09046" cx="138.57134" stroke="#000" fill="none"/>
  <ellipse ry="3.11688" rx="8.96102" id="svg_79" cy="130.64886" cx="117.40255" stroke="#000" fill="none"/>
  <ellipse ry="0.90909" rx="1.03896" id="svg_80" cy="108.18137" cx="96.23377" stroke="#000" fill="none"/>
  <ellipse ry="1.2987" rx="2.07792" id="svg_81" cy="108.31124" cx="138.57134" stroke="#000" fill="none"/>
 </g>
</svg>